<svg width="27" height="34" viewBox="0 0 27 34" fill="none" xmlns="http://www.w3.org/2000/svg">
<path d="M25.7374 25.4861L19.6213 20.5091L19.6045 20.4951C19.2851 20.2441 18.908 20.0767 18.5076 20.008C18.1071 19.9394 17.6958 19.9717 17.311 20.102C17.2658 20.117 17.2214 20.1347 17.1782 20.1549L12.7667 22.2542C10.7878 20.5395 9.06356 17.579 8.56017 15.0373L12.6029 12.213C12.6423 12.1841 12.6803 12.1547 12.7175 12.122C13.0178 11.8534 13.2471 11.5148 13.385 11.1363C13.5228 10.7577 13.565 10.351 13.5076 9.95218L13.5124 9.93447L12.2545 2.13509C12.1772 1.61351 11.9333 1.13092 11.5592 0.759357C11.1851 0.387794 10.7008 0.147187 10.1787 0.0734543C8.10903 -0.19916 6.01085 0.290957 4.27609 1.45226C2.54132 2.61357 1.28861 4.36665 0.751915 6.38407C-2.38704 18.0988 4.59022 30.1838 16.3049 33.3228C18.3204 33.8667 20.465 33.6584 22.3381 32.7367C24.2112 31.815 25.6847 30.2429 26.4835 28.3142C26.6808 27.8254 26.7147 27.2859 26.5802 26.7762C26.4458 26.2666 26.1501 25.814 25.7374 25.4861ZM16.9375 30.9621C11.932 29.6151 7.66522 26.3374 5.07341 21.8482C2.4816 17.359 1.77641 12.0251 3.11257 7.01661C3.49306 5.57437 4.38552 4.31993 5.62327 3.48758C6.86102 2.65523 8.35943 2.30187 9.83865 2.4935C9.83649 2.49923 9.8349 2.50516 9.83391 2.5112L11.0742 10.2758L7.04646 13.1088C7.00596 13.1362 6.96767 13.1666 6.93192 13.1999C6.61861 13.4811 6.38325 13.8385 6.24865 14.2374C6.11406 14.6363 6.0848 15.0632 6.1637 15.4768C6.76787 18.5689 8.7899 22.0409 11.1956 24.1166C11.5174 24.3908 11.9048 24.5768 12.32 24.6564C12.7352 24.7361 13.164 24.7067 13.5644 24.5711C13.6091 24.5557 13.6529 24.5379 13.6957 24.5177L18.1023 22.4188L24.2046 27.3826C24.2046 27.3826 24.2164 27.3857 24.2208 27.3869C23.6489 28.7664 22.5941 29.8903 21.2535 30.5484C19.913 31.2064 18.3786 31.3535 16.9375 30.9621Z" fill="#90720F"/>
</svg>
